<svg xmlns="http://www.w3.org/2000/svg" width="42" height="42" viewBox="0 0 42 42">
  <defs>
    <style>
      .cls-1 {
        fill: #767676;
        stroke: #707070;
      }

      .cls-2 {
        fill: #fff;
      }

      .cls-3 {
        stroke: none;
      }

      .cls-4 {
        fill: none;
      }
    </style>
  </defs>
  <g id="그룹_6639" data-name="그룹 6639" transform="translate(-120 -239)">
    <g id="타원_158" data-name="타원 158" class="cls-1" transform="translate(120 239)">
      <circle class="cls-3" cx="21" cy="21" r="21"/>
      <circle class="cls-4" cx="21" cy="21" r="20.5"/>
    </g>
    <g id="그룹_6638" data-name="그룹 6638" transform="translate(610.649 171.271)">
      <path id="패스_5324" data-name="패스 5324" class="cls-2" d="M-338.793,208.011l-.754,2.152h1.532l-.754-2.15Z" transform="translate(-133.115 -122.064)"/>
      <path id="패스_5325" data-name="패스 5325" class="cls-2" d="M-469.649,78.391c-6.215,0-11.253,3.982-11.253,8.9,0,3.2,2.135,6,5.338,7.568-.235.879-.852,3.184-.976,3.676-.152.612.225.6.471.439.193-.129,3.084-2.093,4.331-2.941a14.249,14.249,0,0,0,2.089.154c6.215,0,11.253-3.983,11.253-8.9S-463.435,78.391-469.649,78.391Zm-5.539,11.337a.549.549,0,0,1-.161.387.546.546,0,0,1-.384.159h-.12a.545.545,0,0,1-.385-.16.549.549,0,0,1-.161-.386V85.786h-1.07a.56.56,0,0,1-.56-.56.56.56,0,0,1,.56-.56h3.291a.56.56,0,0,1,.56.56.56.56,0,0,1-.56.56h-1.01Zm5.387.517a.544.544,0,0,1-.694-.333l-.279-.8h-2.245l-.279.8a.545.545,0,0,1-.694.333.544.544,0,0,1-.332-.694l1.612-4.325a.761.761,0,0,1,.031-.074.783.783,0,0,1,.8-.565.806.806,0,0,1,.768.472l.005.005,1.64,4.486A.544.544,0,0,1-469.8,90.245Zm3.531-.008h-2.236a.508.508,0,0,1-.508-.509.515.515,0,0,1,.009-.1.6.6,0,0,1-.009-.1V85.2a.607.607,0,0,1,.607-.608.607.607,0,0,1,.607.608v4.026h1.53a.507.507,0,0,1,.508.508A.508.508,0,0,1-466.27,90.238Zm4.782-.071a.542.542,0,0,1-.76-.108l-1.613-2.117-.347.346v1.38a.607.607,0,0,1-.607.607.607.607,0,0,1-.607-.607V85.2a.607.607,0,0,1,.607-.608.607.607,0,0,1,.607.608v1.581l1.907-1.907a.535.535,0,0,1,.756,0,.534.534,0,0,1,0,.756l-1.541,1.541,1.705,2.24A.543.543,0,0,1-461.488,90.167Z" transform="translate(0)"/>
    </g>
  </g>
</svg>
