<svg xmlns="http://www.w3.org/2000/svg" width="42" height="42" viewBox="0 0 42 42">
  <defs>
    <style>
      .cls-1 {
        fill: #767676;
        stroke: #707070;
      }

      .cls-2 {
        fill: #fff;
      }

      .cls-3 {
        stroke: none;
      }

      .cls-4 {
        fill: none;
      }
    </style>
  </defs>
  <g id="그룹_6637" data-name="그룹 6637" transform="translate(-172 -239)">
    <g id="타원_157" data-name="타원 157" class="cls-1" transform="translate(172 239)">
      <circle class="cls-3" cx="21" cy="21" r="21"/>
      <circle class="cls-4" cx="21" cy="21" r="20.5"/>
    </g>
    <path id="패스_5323" data-name="패스 5323" class="cls-2" d="M-168.15,103.831a2.931,2.931,0,0,0-2.069-2.069c-1.825-.489-9.143-.489-9.143-.489s-7.318,0-9.143.489a2.931,2.931,0,0,0-2.069,2.069,30.471,30.471,0,0,0-.489,5.633,30.471,30.471,0,0,0,.489,5.633,2.932,2.932,0,0,0,2.069,2.069c1.825.489,9.143.489,9.143.489s7.318,0,9.143-.489a2.932,2.932,0,0,0,2.069-2.069,30.455,30.455,0,0,0,.489-5.633A30.455,30.455,0,0,0-168.15,103.831Zm-13.552,9.143v-7.021l6.08,3.511Z" transform="translate(372.362 150.536)"/>
  </g>
</svg>
