<svg xmlns="http://www.w3.org/2000/svg" width="75" height="29" viewBox="0 0 75 29">
  <defs>
    <style>
      .cls-1 {
        fill: #ff4800;
      }

      .cls-2 {
        fill: #444;
      }
    </style>
  </defs>
  <g id="그룹_8855" data-name="그룹 8855" transform="translate(-16 -10)">
    <g id="그룹_3456" data-name="그룹 3456" transform="translate(16 10)">
      <path id="패스_521" data-name="패스 521" class="cls-1" d="M6673.573,7088.591a3.263,3.263,0,0,0-4.093.136.439.439,0,0,0-.032.64l.017.016a.491.491,0,0,0,.654.015,2.285,2.285,0,0,1,2.866-.1.489.489,0,0,0,.665-.073A.439.439,0,0,0,6673.573,7088.591Z" transform="translate(-6660.539 -7079.178)"/>
      <path id="패스_522" data-name="패스 522" class="cls-1" d="M6520.276,6921.649l-10.3,7.627a.654.654,0,0,0-.27.526v20.042a.681.681,0,0,0,.7.665h7.929c-1.081-4.172-2.581-10.243-2.821-11.516-.612.027-1.089-.04-1.2-.275-.133-.291.311-.79.926-1.3-.137-.876-.23-1.64-.272-2.224-.71-.2-1.3-.454-1.3-.735s.618-.55,1.35-.75a5.081,5.081,0,0,1,.88-2.093c-.554-.882-.982-1.8-.681-2.083s1.266.127,2.194.655a5.747,5.747,0,0,1,1.766-.743c.265-1.014.653-1.986,1.084-1.986s.792.906,1.057,1.881a5.766,5.766,0,0,1,2.256.8c.835-.576,1.695-1.023,2.01-.78.333.256-.012,1.23-.48,2.169a5.1,5.1,0,0,1,.934,2.094c.877.207,1.709.508,1.709.841s-.794.62-1.649.826c-.047.593-.142,1.358-.28,2.229.568.5.965.987.829,1.263-.108.219-.537.28-1.093.252-.24,1.265-1.736,7.313-2.814,11.475h8.273a.68.68,0,0,0,.7-.665V6929.8a.656.656,0,0,0-.27-.526l-10.305-7.627A.721.721,0,0,0,6520.276,6921.649Z" transform="translate(-6509.703 -6921.51)"/>
    </g>
    <g id="그룹_6537" data-name="그룹 6537" transform="translate(45 12.4)">
      <path id="패스_523" data-name="패스 523" class="cls-2" d="M7350.938,7254.687h0a.336.336,0,0,0-.34.332v.888a.32.32,0,0,0,.046.165,4.615,4.615,0,0,1,.634,2.392c0,5.543-4.072,7.416-6.35,8.03a.333.333,0,0,1-.306-.577,8.026,8.026,0,0,0,2.892-4.278.334.334,0,0,0-.331-.41h-1.259a.336.336,0,0,1-.34-.332v-.265a.336.336,0,0,0-.34-.332h-13.105a.337.337,0,0,1-.34-.332v-2.344a.336.336,0,0,1,.34-.332h13.105a.336.336,0,0,0,.34-.332v-.266a.336.336,0,0,1,.34-.332h1.384a.336.336,0,0,0,.34-.332v-1.012a.336.336,0,0,0-.34-.332h0a.336.336,0,0,1-.341-.332v-1.6a.336.336,0,0,1,.341-.331h3.629a.336.336,0,0,1,.34.331v1.6A.336.336,0,0,1,7350.938,7254.687Z" transform="translate(-7307.807 -7241.506)"/>
      <path id="패스_524" data-name="패스 524" class="cls-2" d="M7338.276,7101.526v2.97a.294.294,0,0,1-.3.291H7332.1a.3.3,0,0,1-.3-.291v-12.456a.3.3,0,0,1,.3-.291h5.881a.294.294,0,0,1,.3.291v2.97a.294.294,0,0,1-.3.29h-1.965v5.935h1.965A.294.294,0,0,1,7338.276,7101.526Zm7.726,0v2.97a.294.294,0,0,1-.3.291h-6.674v-12.746a.294.294,0,0,1,.3-.291h6.247a.294.294,0,0,1,.3.291v2.97a.294.294,0,0,1-.3.29h-2.356v5.935h2.486A.293.293,0,0,1,7346,7101.526Zm7.805-5.077v3.68a.3.3,0,0,1-.3.291h-2.147v.534a.3.3,0,0,1-.3.291h-3.723a.3.3,0,0,1-.3-.291v-8.913a.3.3,0,0,1,.3-.291h3.723a.294.294,0,0,1,.3.291v4.119h2.147A.294.294,0,0,1,7353.807,7096.449Z" transform="translate(-7307.807 -7090.961)"/>
      <path id="패스_525" data-name="패스 525" class="cls-2" d="M6993.11,7115.23h-3.853a.294.294,0,0,1-.3-.29v-5.209h-14.816a.294.294,0,0,1-.3-.29v-2.818a.293.293,0,0,1,.3-.29h7.064v-1.522h-7.064a.294.294,0,0,1-.3-.29v-2.767a.294.294,0,0,1,.3-.29h19.071a.294.294,0,0,1,.3.29v2.767a.294.294,0,0,1-.3.29h-7.559v1.522h7.455a.294.294,0,0,1,.3.29v8.318A.3.3,0,0,1,6993.11,7115.23Zm.4-18.042v2.843a.3.3,0,0,1-.3.291h-9.29a.294.294,0,0,1-.3-.291v-7.991a.293.293,0,0,1,.3-.291h9.187a.3.3,0,0,1,.3.291v2.843a.3.3,0,0,1-.3.29h-5.035v1.725h5.139A.294.294,0,0,1,6993.512,7097.188Z" transform="translate(-6973.006 -7090.961)"/>
      <path id="패스_526" data-name="패스 526" class="cls-2" d="M6978.255,7079.417a.2.2,0,0,0-.2-.194h-3.266a.2.2,0,0,0-.2.194v.467h3.663Z" transform="translate(-6973.706 -7079.224)"/>
      <path id="패스_527" data-name="패스 527" class="cls-2" d="M6961.089,7175.682a.2.2,0,0,0-.2.193v2.766a.2.2,0,0,0,.2.193h.511v-3.152Z" transform="translate(-6960.89 -7169.599)"/>
      <path id="패스_528" data-name="패스 528" class="cls-2" d="M7038.913,7175.682h-4.958v3.152h.584v-.437h.247v.438h1.467v-.437h.247v.438h1.467v-.437h.248v.438h.7a.2.2,0,0,0,.2-.193v-2.766A.2.2,0,0,0,7038.913,7175.682Z" transform="translate(-7029.227 -7169.599)"/>
      <path id="패스_529" data-name="패스 529" class="cls-2" d="M6979.735,7103.523a.218.218,0,1,0,.224.219A.222.222,0,0,0,6979.735,7103.523Z" transform="translate(-6978.307 -7101.992)"/>
      <path id="패스_530" data-name="패스 530" class="cls-2" d="M6970.575,7092.433h-.345v.425h-.248v-.425h-1.467v.425h-.247v-.425H6966.8v.425h-.247v-.425h-1.467v.425h-.247v-.425h-1.468v.425h-.247v-.425h-1.466v.425h-.248v-.425h-.322a.2.2,0,0,0-.2.193v2.683a.2.2,0,0,0,.2.193h9.486a.2.2,0,0,0,.2-.193v-2.683A.2.2,0,0,0,6970.575,7092.433Zm-8.255,1.308a.391.391,0,1,1,.4-.391A.4.4,0,0,1,6962.319,7093.74Z" transform="translate(-6960.89 -7091.6)"/>
      <path id="패스_531" data-name="패스 531" class="cls-2" d="M6974.592,7144.193h.487v.241h-.487v1.431h.487v.241h-.487v1.43h.487v.241h-.487v1.659a.2.2,0,0,0,.2.194h3.266a.2.2,0,0,0,.2-.194v-5.6h-3.663Zm.967,3.851a.34.34,0,1,1-.349.34A.345.345,0,0,1,6975.559,7148.043Z" transform="translate(-6973.706 -7139.758)"/>
      <path id="패스_532" data-name="패스 532" class="cls-2" d="M6987.047,7213.669a.168.168,0,1,0-.173-.168A.17.17,0,0,0,6987.047,7213.669Z" transform="translate(-6985.193 -7204.876)"/>
    </g>
  </g>
</svg>
