<svg xmlns="http://www.w3.org/2000/svg" width="46" height="46" viewBox="0 0 46 46">
  <defs>
    <style>
      .cls-1 {
        fill: #f8f8fa;
      }

      .cls-2, .cls-4, .cls-5 {
        fill: none;
      }

      .cls-2, .cls-3 {
        stroke: #191919;
      }

      .cls-2, .cls-3, .cls-4, .cls-6 {
        stroke-linecap: round;
        stroke-linejoin: round;
      }

      .cls-3, .cls-6 {
        fill: #fff;
      }

      .cls-4, .cls-6 {
        stroke: #ff4800;
      }
    </style>
  </defs>
  <g id="그룹_10033" data-name="그룹 10033" transform="translate(-298 -375)">
    <g id="그룹_10031" data-name="그룹 10031" transform="translate(274 60)">
      <rect id="사각형_3768" data-name="사각형 3768" class="cls-1" width="46" height="46" rx="12" transform="translate(24 315)"/>
    </g>
    <g id="그룹_10032" data-name="그룹 10032" transform="translate(-1.291 -1.994)">
      <line id="선_748" data-name="선 748" class="cls-2" y2="13.687" transform="translate(332.931 397.15)"/>
      <line id="선_749" data-name="선 749" class="cls-2" x2="4.38" transform="translate(330.742 411.11)"/>
      <path id="패스_5652" data-name="패스 5652" class="cls-3" d="M19.364,20.237H.75v-8.76A3.285,3.285,0,0,1,4.035,8.193H16.079a3.285,3.285,0,0,1,3.285,3.285Z" transform="translate(308.093 389.777)"/>
      <line id="선_750" data-name="선 750" class="cls-2" x2="18.614" transform="translate(308.843 404.541)"/>
      <line id="선_751" data-name="선 751" class="cls-2" y1="4.442" transform="translate(318.15 404.814)"/>
      <line id="선_752" data-name="선 752" class="cls-2" y1="3.285" transform="translate(327.457 407.825)"/>
      <line id="선_753" data-name="선 753" class="cls-2" y1="3.285" transform="translate(308.843 407.825)"/>
      <line id="선_754" data-name="선 754" class="cls-4" x2="3.285" transform="translate(316.507 400.161)"/>
      <path id="패스_5685" data-name="패스 5685" class="cls-5" d="M0,0H29.27V22.931H0Z" transform="translate(308.021 389)"/>
      <path id="패스_5651" data-name="패스 5651" class="cls-6" d="M26.6,6.893H19.517L20.933.75H25.18Z" transform="translate(309.875 389.071)"/>
    </g>
  </g>
</svg>
