<svg xmlns="http://www.w3.org/2000/svg" width="46" height="46" viewBox="0 0 46 46">
  <defs>
    <style>
      .cls-1 {
        fill: #f8f8fa;
      }

      .cls-2 {
        fill: #fff;
      }

      .cls-2, .cls-3 {
        stroke: #000;
      }

      .cls-2, .cls-3, .cls-4 {
        stroke-linecap: round;
        stroke-linejoin: round;
      }

      .cls-3, .cls-4, .cls-5 {
        fill: none;
      }

      .cls-4 {
        stroke: #ff4800;
      }
    </style>
  </defs>
  <g id="그룹_10029" data-name="그룹 10029" transform="translate(-11434 -1288)">
    <g id="그룹_10028" data-name="그룹 10028" transform="translate(11410 973)">
      <rect id="사각형_3768" data-name="사각형 3768" class="cls-1" width="46" height="46" rx="12" transform="translate(24 315)"/>
    </g>
    <g id="그룹_10041" data-name="그룹 10041" transform="translate(0.809)">
      <path id="패스_5681" data-name="패스 5681" class="cls-2" d="M21.076,22.107H5.126L3,.75H23.2Z" transform="translate(11443.5 1299.572)"/>
      <path id="패스_5640" data-name="패스 5640" class="cls-3" d="M21.076,5.945H5.126L3,.75H23.2Z" transform="translate(11443.5 1299.572)"/>
      <g id="그룹_10040" data-name="그룹 10040" transform="translate(-0.342)">
        <ellipse id="타원_968" data-name="타원 968" class="cls-4" cx="1.871" cy="2.338" rx="1.871" ry="2.338" transform="translate(11452.342 1309.268)"/>
        <path id="패스_5641" data-name="패스 5641" class="cls-4" d="M16.272,9v1.761a1.761,1.761,0,0,1-3.522,0V9" transform="translate(11445.702 1300.846)"/>
        <line id="선_743" data-name="선 743" class="cls-4" y2="9.654" transform="translate(11460.213 1309.5)"/>
        <line id="선_779" data-name="선 779" class="cls-4" y2="4.654" transform="translate(11454.213 1314.5)"/>
      </g>
      <line id="선_744" data-name="선 744" class="cls-3" x2="2.309" y2="4.906" transform="translate(11466.703 1300.322)"/>
      <line id="선_745" data-name="선 745" class="cls-3" x1="2.309" y2="4.906" transform="translate(11444.191 1300.322)"/>
    </g>
    <path id="패스_5683" data-name="패스 5683" class="cls-5" d="M0,0H27.129V23.088H0Z" transform="translate(11443.186 1299.456)"/>
  </g>
</svg>
