<svg xmlns="http://www.w3.org/2000/svg" width="46" height="46" viewBox="0 0 46 46">
  <defs>
    <style>
      .cls-1 {
        fill: #f8f8fa;
      }

      .cls-2, .cls-5 {
        fill: #fff;
      }

      .cls-2 {
        stroke: #000;
        stroke-miterlimit: 10;
      }

      .cls-3, .cls-4 {
        fill: none;
        stroke: #ff4800;
        stroke-linejoin: round;
      }

      .cls-3 {
        stroke-linecap: round;
      }

      .cls-5 {
        stroke: #707070;
      }
    </style>
  </defs>
  <g id="그룹_10021" data-name="그룹 10021" transform="translate(-24 -315)">
    <rect id="사각형_3768" data-name="사각형 3768" class="cls-1" width="46" height="46" rx="12" transform="translate(24 315)"/>
    <g id="그룹_10020" data-name="그룹 10020" transform="translate(0 -0.75)">
      <rect id="사각형_3740" data-name="사각형 3740" class="cls-2" width="22" height="16" rx="1.827" transform="translate(36.5 330.75)"/>
      <path id="패스_5626" data-name="패스 5626" class="cls-3" d="M16.63,9.812,14.41,6.236,12.19,9.812" transform="translate(35 330)"/>
      <line id="선_733" data-name="선 733" class="cls-4" x2="21" transform="translate(37 336.25)"/>
      <path id="패스_5627" data-name="패스 5627" class="cls-5" d="M15.4,5.107l.6-.3a1.662,1.662,0,1,1,0,2.96l-.6-.305a1.319,1.319,0,0,1,0-2.35" transform="translate(35 330)"/>
      <path id="패스_5628" data-name="패스 5628" class="cls-3" d="M15.4,5.107l.6-.3a1.662,1.662,0,1,1,0,2.96l-.6-.305A1.319,1.319,0,0,1,15.4,5.107Z" transform="translate(35 330)"/>
      <path id="패스_5629" data-name="패스 5629" class="cls-5" d="M13.417,5.107l-.6-.3a1.662,1.662,0,1,0,0,2.96l.6-.305a1.319,1.319,0,0,0,0-2.35" transform="translate(35 330)"/>
      <path id="패스_5630" data-name="패스 5630" class="cls-3" d="M13.417,5.107l-.6-.3a1.662,1.662,0,1,0,0,2.96l.6-.305A1.319,1.319,0,0,0,13.417,5.107Z" transform="translate(35 330)"/>
    </g>
  </g>
</svg>
